<svg height="512" viewBox="0 0 64 64" width="512" xmlns="http://www.w3.org/2000/svg"><g id="algorithm"><path d="m61 18.69v2.62a2.006 2.006 0 0 1 -1.67 1.97l-1.73.29a1.937 1.937 0 0 0 -1.51 1.21c-.05.13-.11.26-.16.39a1.963 1.963 0 0 0 .21 1.93l1.02 1.42a1.992 1.992 0 0 1 -.22 2.58l-1.84 1.84a1.992 1.992 0 0 1 -2.58.22l-1.42-1.02a1.963 1.963 0 0 0 -1.93-.21c-.13.05-.26.11-.39.16a1.937 1.937 0 0 0 -1.21 1.51l-.29 1.73a2.006 2.006 0 0 1 -1.97 1.67h-2.62a2.006 2.006 0 0 1 -1.97-1.67l-.29-1.73a1.937 1.937 0 0 0 -1.21-1.51c-.13-.05-.26-.11-.39-.16a1.963 1.963 0 0 0 -1.93.21l-1.42 1.02a1.992 1.992 0 0 1 -2.58-.22l-1.84-1.84a1.992 1.992 0 0 1 -.22-2.58l1.02-1.42a1.963 1.963 0 0 0 .21-1.93c-.05-.13-.11-.26-.16-.39a1.937 1.937 0 0 0 -1.51-1.21l-1.73-.29a2.006 2.006 0 0 1 -1.67-1.97v-2.62a2.006 2.006 0 0 1 1.67-1.97l1.73-.29a1.937 1.937 0 0 0 1.51-1.21c.05-.13.11-.26.16-.39a1.963 1.963 0 0 0 -.21-1.93l-1.02-1.42a1.992 1.992 0 0 1 .22-2.58l.92-.92.92-.92a1.992 1.992 0 0 1 2.58-.22l1.42 1.02a1.963 1.963 0 0 0 1.93.21c.13-.05.26-.11.39-.16a1.937 1.937 0 0 0 1.21-1.51l.29-1.73a2.006 2.006 0 0 1 1.97-1.67h2.62a2.006 2.006 0 0 1 1.97 1.67l.29 1.73a1.937 1.937 0 0 0 1.21 1.51c.13.05.26.11.39.16a1.963 1.963 0 0 0 1.93-.21l1.42-1.02a1.992 1.992 0 0 1 2.58.22l1.84 1.84a1.992 1.992 0 0 1 .22 2.58l-1.02 1.42a1.963 1.963 0 0 0 -.21 1.93c.05.13.11.26.16.39a1.937 1.937 0 0 0 1.51 1.21l1.73.29a2.006 2.006 0 0 1 1.67 1.97z" fill="#c0ab91"/><circle cx="57" cy="49" fill="#ffeb99" r="3"/><path d="m55 57v4h-32l-10-8v-14l9-4 15 8v2a2.006 2.006 0 0 1 -2 2h-13l10 8h21a2.006 2.006 0 0 1 2 2z" fill="#ffdaaa"/><path d="m22 35 15 8v2a2.006 2.006 0 0 1 -2 2h-2a2.006 2.006 0 0 0 2-2v-2l-14.09-7.52z" fill="#ffc477"/><path d="m55 57v4h-2v-4a2.006 2.006 0 0 0 -2-2h2a2.006 2.006 0 0 1 2 2z" fill="#ffc477"/><circle cx="44" cy="20" fill="#ffeb99" r="8"/><path d="m52 20a8 8 0 0 1 -8 8 8.262 8.262 0 0 1 -1-.06 8 8 0 0 0 0-15.88 8.262 8.262 0 0 1 1-.06 8 8 0 0 1 8 8z" fill="#ffcd00"/><circle cx="11" cy="27" fill="#ffeb99" r="3"/><path d="m13 53v2h-4v-2-14-2h4v2z" fill="#57a4ff"/><path d="m3 39h6v14h-6z" fill="#ffdaaa"/><circle cx="6" cy="12" fill="#ffeb99" r="3"/><path d="m53 54h-20.649l-7.5-6h10.149a3 3 0 0 0 3-3v-2a1 1 0 0 0 -.529-.882l-15-8a1 1 0 0 0 -.877-.032l-7.594 3.375v-.461a1 1 0 0 0 -1-1h-4a1 1 0 0 0 -1 1v1h-5a1 1 0 0 0 -1 1v14a1 1 0 0 0 1 1h5v1a1 1 0 0 0 1 1h4a.993.993 0 0 0 .986-.93l8.389 6.711a1 1 0 0 0 .625.219h32a1 1 0 0 0 1-1v-4a3 3 0 0 0 -3-3zm-49-2v-12h4v12zm8 2h-2v-16h2zm42 6h-30.649l-9.351-7.481v-12.869l7.96-3.538 14.04 7.488v1.4a1 1 0 0 1 -1 1h-13a1 1 0 0 0 -.625 1.781l10 8a1 1 0 0 0 .625.219h21a1 1 0 0 1 1 1z"/><path d="m39 19h2v2h-2z"/><path d="m43 19h2v2h-2z"/><path d="m47 19h2v2h-2z"/><path d="m59.493 15.735-1.724-.287a.971.971 0 0 1 -.748-.591c-.057-.144-.116-.286-.177-.428a.974.974 0 0 1 .111-.947l1.016-1.421a2.992 2.992 0 0 0 -.32-3.866l-1.846-1.847a2.993 2.993 0 0 0 -3.866-.319l-1.421 1.016a.977.977 0 0 1 -.947.112q-.212-.091-.428-.178a.968.968 0 0 1 -.59-.749l-.288-1.723a2.991 2.991 0 0 0 -2.959-2.507h-2.612a2.991 2.991 0 0 0 -2.959 2.506l-.288 1.725a.971.971 0 0 1 -.591.749c-.143.057-.286.116-.427.177a.979.979 0 0 1 -.947-.113l-1.421-1.015a2.992 2.992 0 0 0 -3.866.32l-.216.216-4.272-4.272a1 1 0 0 0 -.707-.293h-21a1 1 0 0 0 -1 1v5.142a4 4 0 1 0 2 0v-4.142h19.586l3.979 3.979-.216.216a2.991 2.991 0 0 0 -.32 3.865l1.016 1.423a.973.973 0 0 1 .111.947q-.091.212-.177.427a.971.971 0 0 1 -.748.591l-1.724.287a2.991 2.991 0 0 0 -2.507 2.959v.306h-15a1 1 0 0 0 -1 1v3.142a4 4 0 1 0 2 0v-2.142h14v.306a2.991 2.991 0 0 0 2.507 2.959l1.724.287a.971.971 0 0 1 .748.591c.057.144.116.286.177.428a.974.974 0 0 1 -.111.947l-1.016 1.421a2.992 2.992 0 0 0 .32 3.866l1.851 1.847a2.993 2.993 0 0 0 3.866.319l1.421-1.015a.977.977 0 0 1 .947-.113q.212.091.428.178a.968.968 0 0 1 .59.749l.288 1.723a2.991 2.991 0 0 0 2.954 2.507h.306v11a1 1 0 0 0 1 1h9.142a4 4 0 1 0 0-2h-8.142v-10h.306a2.991 2.991 0 0 0 2.959-2.506l.288-1.725a.971.971 0 0 1 .591-.749c.143-.057.286-.116.427-.177a.972.972 0 0 1 .947.113l1.421 1.015a2.993 2.993 0 0 0 3.866-.32l1.846-1.846a2.991 2.991 0 0 0 .32-3.865l-1.016-1.423a.973.973 0 0 1 -.111-.947q.092-.212.177-.427a.971.971 0 0 1 .748-.591l1.724-.287a2.991 2.991 0 0 0 2.507-2.959v-2.612a2.991 2.991 0 0 0 -2.507-2.959zm-51.493-3.735a2 2 0 1 1 -2-2 2 2 0 0 1 2 2zm5 15a2 2 0 1 1 -2-2 2 2 0 0 1 2 2zm44 20a2 2 0 1 1 -2 2 2 2 0 0 1 2-2zm3-25.694a1 1 0 0 1 -.835.986l-1.725.288a2.983 2.983 0 0 0 -2.281 1.83c-.049.124-.1.246-.151.366a2.984 2.984 0 0 0 .32 2.9l1.016 1.424a1 1 0 0 1 -.107 1.288l-1.846 1.846a1 1 0 0 1 -1.289.106l-1.422-1.012a2.98 2.98 0 0 0 -2.9-.32c-.12.053-.243.1-.366.151a2.98 2.98 0 0 0 -1.83 2.28l-.288 1.726a1 1 0 0 1 -.986.835h-2.616a1 1 0 0 1 -.986-.836l-.288-1.724a2.977 2.977 0 0 0 -1.829-2.28c-.124-.049-.247-.1-.367-.152a2.916 2.916 0 0 0 -1.16-.238 3 3 0 0 0 -1.744.558l-1.42 1.015a1 1 0 0 1 -1.289-.106l-1.846-1.846a1 1 0 0 1 -.107-1.289l1.016-1.422a2.981 2.981 0 0 0 .32-2.9c-.052-.122-.1-.244-.151-.368a2.983 2.983 0 0 0 -2.281-1.83l-1.725-.288a1 1 0 0 1 -.837-.988v-2.612a1 1 0 0 1 .835-.986l1.725-.288a2.983 2.983 0 0 0 2.281-1.83c.049-.124.1-.246.151-.366a2.984 2.984 0 0 0 -.32-2.9l-1.016-1.424a1 1 0 0 1 .107-1.288l1.846-1.846a1 1 0 0 1 1.291-.109l1.42 1.015a2.982 2.982 0 0 0 2.9.32c.12-.053.243-.1.366-.151a2.98 2.98 0 0 0 1.83-2.28l.288-1.726a1 1 0 0 1 .99-.835h2.612a1 1 0 0 1 .986.836l.288 1.724a2.977 2.977 0 0 0 1.829 2.28c.124.049.247.1.367.152a2.985 2.985 0 0 0 2.9-.32l1.424-1.015a1 1 0 0 1 1.289.106l1.846 1.846a1 1 0 0 1 .107 1.289l-1.014 1.422a2.981 2.981 0 0 0 -.32 2.9c.052.122.1.244.151.368a2.983 2.983 0 0 0 2.281 1.83l1.725.288a1 1 0 0 1 .835.986z"/><path d="m44 11a9 9 0 1 0 9 9 9.01 9.01 0 0 0 -9-9zm0 16a7 7 0 1 1 7-7 7.008 7.008 0 0 1 -7 7z"/></g></svg>