<?xml version="1.0" encoding="iso-8859-1"?>
<!-- Generator: Adobe Illustrator 19.0.0, SVG Export Plug-In . SVG Version: 6.00 Build 0)  -->
<svg version="1.1" id="Layer_1" xmlns="http://www.w3.org/2000/svg" xmlns:xlink="http://www.w3.org/1999/xlink" x="0px" y="0px"
	 viewBox="0 0 473.931 473.931" style="enable-background:new 0 0 473.931 473.931;" xml:space="preserve">
<circle style="fill:#D7DABA;" cx="236.966" cy="236.966" r="236.966"/>
<path style="fill:#00599C;" d="M144.391,93.787c-8.819,0-15.981,7.154-15.981,15.981v255.757c0,8.827,7.162,15.981,15.981,15.981
	H328.22c8.827,0,15.981-7.154,15.981-15.981V167.81l-77.05-74.023H144.391z"/>
<g>
	<path style="fill:#194680;" d="M344.201,167.81h-61.066c-8.827,0-15.981-7.154-15.981-15.981V93.787L344.201,167.81z"/>
	<path style="fill:#194680;" d="M263.966,271.772c0,10.189-8.258,18.447-18.447,18.447H110.876
		c-10.189,0-18.447-8.258-18.447-18.447v-56.355c0-10.189,8.258-18.439,18.447-18.439h134.643c10.189,0,18.447,8.251,18.447,18.439
		V271.772z"/>
</g>
<g>
	<path style="fill:#FFFFFF;" d="M158.965,252.427c0,1.194-0.296,2.485-0.879,3.876c-0.591,1.392-1.515,2.754-2.776,4.094
		c-1.261,1.34-2.874,2.425-4.834,3.263c-1.961,0.838-4.247,1.253-6.855,1.253c-1.976,0-3.779-0.187-5.396-0.561
		c-1.616-0.374-3.091-0.958-4.415-1.751c-1.321-0.793-2.537-1.837-3.644-3.132c-0.992-1.175-1.833-2.496-2.533-3.951
		c-0.7-1.456-1.224-3.016-1.572-4.67c-0.352-1.654-0.528-3.412-0.528-5.268c0-3.02,0.438-5.721,1.317-8.108
		c0.879-2.387,2.137-4.43,3.775-6.125c1.639-1.695,3.555-2.99,5.755-3.876c2.2-0.887,4.546-1.328,7.035-1.328
		c3.038,0,5.736,0.606,8.108,1.815s4.187,2.709,5.448,4.49c1.261,1.781,1.893,3.465,1.893,5.051c0,0.868-0.307,1.639-0.92,2.301
		c-0.614,0.662-1.355,0.999-2.226,0.999c-0.973,0-1.703-0.232-2.185-0.692c-0.49-0.46-1.029-1.253-1.628-2.38
		c-0.992-1.86-2.152-3.248-3.491-4.168c-1.34-0.92-2.99-1.381-4.95-1.381c-3.121,0-5.605,1.186-7.457,3.555
		c-1.848,2.369-2.773,5.74-2.773,10.103c0,2.915,0.408,5.343,1.227,7.278c0.819,1.934,1.976,3.379,3.48,4.337
		s3.255,1.433,5.268,1.433c2.181,0,4.03-0.543,5.534-1.624c1.512-1.085,2.649-2.672,3.416-4.771
		c0.326-0.988,0.722-1.792,1.201-2.417c0.479-0.625,1.246-0.935,2.301-0.935c0.902,0,1.68,0.314,2.327,0.947
		S158.965,251.491,158.965,252.427z"/>
	<path style="fill:#FFFFFF;" d="M180.349,249.665h-6.956v10.615c0,1.519-0.359,2.668-1.074,3.454
		c-0.715,0.786-1.62,1.175-2.713,1.175c-1.145,0-2.065-0.389-2.761-1.164c-0.696-0.775-1.048-1.916-1.048-3.416v-28.901
		c0-1.673,0.385-2.866,1.152-3.581c0.767-0.715,1.987-1.074,3.659-1.074h9.744c2.885,0,5.096,0.221,6.649,0.666
		c1.534,0.427,2.862,1.134,3.977,2.122s1.961,2.2,2.544,3.633s0.868,3.042,0.868,4.834c0,3.82-1.175,6.713-3.528,8.685
		S185.004,249.665,180.349,249.665z M178.508,232.476h-5.115v11.461h5.115c1.792,0,3.285-0.187,4.49-0.561
		c1.197-0.374,2.114-0.988,2.746-1.841c0.632-0.853,0.947-1.968,0.947-3.353c0-1.654-0.486-3.001-1.459-4.041
		C184.143,233.029,181.902,232.476,178.508,232.476z"/>
	<path style="fill:#FFFFFF;" d="M215.29,249.665h-6.956v10.615c0,1.519-0.359,2.668-1.074,3.454
		c-0.715,0.786-1.62,1.175-2.713,1.175c-1.145,0-2.065-0.389-2.761-1.164c-0.696-0.775-1.048-1.916-1.048-3.416v-28.901
		c0-1.673,0.385-2.866,1.152-3.581c0.767-0.715,1.987-1.074,3.659-1.074h9.744c2.885,0,5.096,0.221,6.649,0.666
		c1.534,0.427,2.862,1.134,3.978,2.122c1.115,0.988,1.961,2.2,2.544,3.633s0.868,3.042,0.868,4.834c0,3.82-1.175,6.713-3.528,8.685
		S219.944,249.665,215.29,249.665z M213.449,232.476h-5.115v11.461h5.115c1.792,0,3.285-0.187,4.49-0.561
		c1.197-0.374,2.114-0.988,2.746-1.841c0.632-0.853,0.947-1.968,0.947-3.353c0-1.654-0.486-3.001-1.459-4.041
		C219.084,233.029,216.842,232.476,213.449,232.476z"/>
</g>
<g>
</g>
<g>
</g>
<g>
</g>
<g>
</g>
<g>
</g>
<g>
</g>
<g>
</g>
<g>
</g>
<g>
</g>
<g>
</g>
<g>
</g>
<g>
</g>
<g>
</g>
<g>
</g>
<g>
</g>
</svg>
