<svg height="512" viewBox="0 0 64 64" width="512" xmlns="http://www.w3.org/2000/svg"><g id="data_structure" data-name="data structure"><rect fill="#ffeb99" height="46" rx="2" width="58" x="3" y="3"/><path d="m59 49h-54a2 2 0 0 1 -2-2l7.909-2.768a87.126 87.126 0 0 0 48.091-41.232 2 2 0 0 1 2 2v42a2 2 0 0 1 -2 2z" fill="#ffd422"/><circle cx="56" cy="49" fill="#ff7956" r="2"/><circle cx="48" cy="49" fill="#ff7956" r="2"/><path d="m44 29v8c0 2.21-5.37 4-12 4s-12-1.79-12-4v-8c0 2.21 5.37 4 12 4s12-1.79 12-4z" fill="#00d7df"/><path d="m44 21v8c0 2.21-5.37 4-12 4s-12-1.79-12-4v-8c0 2.21 5.37 4 12 4s12-1.79 12-4z" fill="#00d7df"/><path d="m44 13v8c0 2.21-5.37 4-12 4s-12-1.79-12-4v-8c0 2.21 5.37 4 12 4s12-1.79 12-4z" fill="#00d7df"/><path d="m44 13v8c0 2.21-5.37 4-12 4-.34 0-.67 0-1-.02 6.16-.16 11-1.88 11-3.98v-5.79c1.27-.64 2-1.4 2-2.21z" fill="#00b6bd"/><path d="m44 21v8c0 2.21-5.37 4-12 4-.34 0-.67 0-1-.02 6.16-.16 11-1.88 11-3.98v-5.79c1.27-.64 2-1.4 2-2.21z" fill="#00b6bd"/><path d="m44 29v8c0 2.21-5.37 4-12 4-.34 0-.67 0-1-.02 6.16-.16 11-1.88 11-3.98v-5.79c1.27-.64 2-1.4 2-2.21z" fill="#00b6bd"/><circle cx="40" cy="49" fill="#ff7956" r="2"/><ellipse cx="32" cy="13" fill="#ff7956" rx="12" ry="4"/><path d="m44 13c0 2.21-5.37 4-12 4q-.765 0-1.5-.03c5.92-.25 10.5-1.93 10.5-3.97s-4.58-3.72-10.5-3.97q.735-.03 1.5-.03c6.63 0 12 1.79 12 4z" fill="#ff6243"/><g fill="#ff7956"><circle cx="32" cy="49" r="2"/><circle cx="24" cy="49" r="2"/><circle cx="16" cy="49" r="2"/><circle cx="8" cy="49" r="2"/></g><path d="m58.816 50h.184a3 3 0 0 0 3-3v-42a3 3 0 0 0 -3-3h-54a3 3 0 0 0 -3 3v42a3 3 0 0 0 3 3h.184a3 3 0 0 0 1.816 1.816v8.184h-5v2h6a1 1 0 0 0 1-1v-9.184a3 3 0 0 0 1.816-1.816h2.368a3 3 0 0 0 1.816 1.816v3.184h-3a1 1 0 0 0 -1 1v6h2v-5h3a1 1 0 0 0 1-1v-4.184a3 3 0 0 0 1.816-1.816h2.368a3 3 0 0 0 1.816 1.816v4.184a1 1 0 0 0 1 1h3v5h2v-6a1 1 0 0 0 -1-1h-3v-3.184a3 3 0 0 0 1.816-1.816h2.368a3 3 0 0 0 1.816 1.816v10.184h2v-10.184a3 3 0 0 0 1.816-1.816h2.368a3 3 0 0 0 1.816 1.816v3.184h-3a1 1 0 0 0 -1 1v6h2v-5h3a1 1 0 0 0 1-1v-4.184a3 3 0 0 0 1.816-1.816h2.368a3 3 0 0 0 1.816 1.816v4.184a1 1 0 0 0 1 1h3v5h2v-6a1 1 0 0 0 -1-1h-3v-3.184a3 3 0 0 0 1.816-1.816h2.368a3 3 0 0 0 1.816 1.816v9.184a1 1 0 0 0 1 1h6v-2h-5v-8.184a3 3 0 0 0 1.816-1.816zm-2.816 0a1 1 0 1 1 1-1 1 1 0 0 1 -1 1zm-52-3v-42a1 1 0 0 1 1-1h54a1 1 0 0 1 1 1v42a1 1 0 0 1 -1 1h-.184a2.982 2.982 0 0 0 -5.632 0h-2.368a2.982 2.982 0 0 0 -5.632 0h-2.368a2.982 2.982 0 0 0 -5.632 0h-2.368a2.982 2.982 0 0 0 -5.632 0h-2.368a2.982 2.982 0 0 0 -5.632 0h-2.368a2.982 2.982 0 0 0 -5.632 0h-2.368a2.982 2.982 0 0 0 -5.632 0h-.184a1 1 0 0 1 -1-1zm4 3a1 1 0 1 1 1-1 1 1 0 0 1 -1 1zm8 0a1 1 0 1 1 1-1 1 1 0 0 1 -1 1zm8 0a1 1 0 1 1 1-1 1 1 0 0 1 -1 1zm8 0a1 1 0 1 1 1-1 1 1 0 0 1 -1 1zm8 0a1 1 0 1 1 1-1 1 1 0 0 1 -1 1zm8 0a1 1 0 1 1 1-1 1 1 0 0 1 -1 1z"/><path d="m32 42c6.46 0 13-1.717 13-5v-24c0-3.283-6.54-5-13-5s-13 1.717-13 5v24c0 3.283 6.54 5 13 5zm0-2c-7.117 0-11-1.982-11-3v-5.217c2.426 1.46 6.725 2.217 11 2.217s8.574-.757 11-2.217v5.217c0 1.018-3.883 3-11 3zm0-30c7.117 0 11 1.982 11 3s-3.883 3-11 3-11-1.982-11-3 3.883-3 11-3zm-11 5.783c2.426 1.46 6.725 2.217 11 2.217s8.574-.757 11-2.217v5.217c0 1.018-3.883 3-11 3s-11-1.982-11-3zm0 8c2.426 1.46 6.725 2.217 11 2.217s8.574-.757 11-2.217v5.217c0 1.018-3.883 3-11 3s-11-1.982-11-3z"/><path d="m31 20h2v2h-2z"/><path d="m31 28h2v2h-2z"/><path d="m31 36h2v2h-2z"/></g></svg>