<svg id="Layer_3" enable-background="new 0 0 96 96" height="512" viewBox="0 0 96 96" width="512" xmlns="http://www.w3.org/2000/svg"><path d="m93.775 35c-.329-1.086-.64-2.179-.917-3.282-4.141-16.498-19.068-28.714-36.85-28.718-.003.003-.005.005-.008.008v12.992h-.193c-1.043 0-2.022-.401-2.859-1.022-1.052-.781-2.416-1.16-3.882-.892-1.95.357-3.551 1.902-3.954 3.843-.671 3.229 1.777 6.071 4.888 6.071 1.121 0 2.149-.374 2.978-1 .821-.62 1.796-1 2.825-1h.197v13z" fill="#63b2b9"/><path d="m41 39v-13h-.193c-1.043 0-2.022.401-2.859 1.022-1.052.781-2.416 1.16-3.882.892-1.95-.357-3.551-1.902-3.954-3.843-.671-3.229 1.777-6.071 4.888-6.071 1.121 0 2.149.374 2.978 1 .821.62 1.796 1 2.825 1h.197v-12.992c-20.305.005-37.285 16.33-37.977 36.666-.342 10.055 3.226 19.27 9.299 26.249 5.451 6.265 8.678 14.155 8.678 22.46v.617h36v-10h18c2.209 0 4-1.791 4-4v-16h6.87c1.107 0 2.182-.543 2.726-1.508.612-1.087.505-2.352-.16-3.282l-1.228-1.72c-3.796-5.314-6.545-11.252-8.433-17.49z" fill="#63b2b9"/><path d="m75 18c0-3.866-3.134-7-7-7s-7 3.134-7 7c0 2.791 1.637 5.193 4 6.317v2.683h6v-2.683c2.363-1.124 4-3.526 4-6.317z" fill="#f9aa3d"/><path d="m44.92 52.89c.05.49.08.99.08 1.5s-.03 1.01-.08 1.51l-3.13.78c-.21 1.19-.59 2.33-1.11 3.38l2.08 2.47c-.52.87-1.11 1.69-1.78 2.44l-2.98-1.21c-.86.82-1.82 1.54-2.88 2.1l.23 3.22c-.91.39-1.87.7-2.86.92l-1.71-2.74c-.58.08-1.17.13-1.78.13s-1.2-.05-1.78-.13l-1.71 2.74c-.99-.22-1.95-.53-2.86-.92l.23-3.22c-1.06-.56-2.02-1.28-2.88-2.1l-2.98 1.21c-.67-.76-1.26-1.57-1.78-2.44l2.08-2.47c-.52-1.05-.9-2.19-1.11-3.39l-3.13-.77c-.05-.5-.08-1-.08-1.51s.03-1.01.08-1.5l3.13-.78c.21-1.19.59-2.33 1.11-3.39l-2.08-2.46c.52-.87 1.11-1.69 1.78-2.44l2.98 1.21c.86-.83 1.82-1.54 2.88-2.11l-.23-3.21c.91-.4 1.87-.7 2.86-.92l1.71 2.74c.58-.08 1.17-.14 1.78-.14s1.2.06 1.78.14l1.71-2.74c.99.22 1.95.52 2.86.92l-.23 3.21c1.06.57 2.02 1.28 2.88 2.11l2.98-1.21c.67.75 1.26 1.57 1.78 2.44l-2.08 2.46c.52 1.06.9 2.2 1.11 3.39z" fill="#ec2f53"/><circle cx="29" cy="54.395" fill="#f0f0f0" r="8"/><circle cx="49" cy="83" r="1"/><circle cx="45" cy="83" r="1"/><circle cx="41" cy="83" r="1"/><path d="m71.778 48.707c.391-.391.391-1.023 0-1.414s-1.023-.391-1.414 0c-3.51 3.51-9.219 3.51-12.729 0-.391-.391-1.023-.391-1.414 0s-.391 1.023 0 1.414c2.145 2.145 4.961 3.217 7.778 3.217 2.819 0 5.635-1.072 7.779-3.217z"/><path d="m94.733 34.71c-.363-1.198-.659-2.256-.904-3.234-4.356-17.351-19.909-29.472-37.821-29.476-.266 0-.527.113-.715.301s-.293.441-.293.707v11.887c-.598-.155-1.101-.455-1.456-.72-1.341-.996-2.994-1.377-4.659-1.072-2.359.433-4.27 2.29-4.753 4.623-.375 1.808.067 3.652 1.213 5.06s2.842 2.214 4.655 2.214c1.3 0 2.538-.415 3.582-1.202.447-.339.928-.573 1.418-.697v11.899c0 .553.447 1 1 1h37.775c.316 0 .614-.15.803-.404.19-.254.246-.583.155-.886zm-37.733-.71v-12c0-.553-.447-1-1-1h-.197c-1.202 0-2.387.416-3.427 1.201-.692.523-1.514.799-2.376.799-1.209 0-2.34-.538-3.104-1.478-.775-.952-1.061-2.156-.805-3.391.319-1.545 1.588-2.775 3.155-3.062 1.11-.202 2.214.049 3.104.711 1.074.798 2.269 1.22 3.456 1.22h.194c.553 0 1-.447 1-1v-11.986c16.573.441 30.837 11.81 34.889 27.948.161.643.343 1.316.549 2.038z"/><path d="m88.021 55.909c-3.551-4.972-6.339-10.758-8.288-17.199-.128-.422-.517-.71-.957-.71h-26.776c-.553 0-1 .447-1 1s.447 1 1 1h26.037c2.001 6.365 4.81 12.106 8.356 17.071l1.229 1.72c.465.65.504 1.498.103 2.21-.347.616-1.058.999-1.855.999h-6.87c-.553 0-1 .447-1 1v7h-7c-1.654 0-3-1.346-3-3v-1c0-.553-.447-1-1-1s-1 .447-1 1v1c0 2.757 2.243 5 5 5h7v7c0 1.654-1.346 3-3 3h-22c-.553 0-1 .447-1 1s.447 1 1 1h3v8h-34.002c-.096-8.163-3.256-16.222-8.923-22.732-6.157-7.077-9.373-16.154-9.054-25.559.66-19.345 16.702-35.151 35.979-35.687v10.878c-.49-.124-.971-.359-1.419-.698-1.043-.787-2.281-1.202-3.581-1.202-1.813 0-3.51.808-4.655 2.215s-1.588 3.252-1.213 5.06c.483 2.333 2.394 4.19 4.753 4.623 1.662.304 3.317-.075 4.659-1.072.355-.265.858-.564 1.456-.72v11.894c0 .553.447 1 1 1h3c.553 0 1-.447 1-1s-.447-1-1-1h-2v-12c0-.553-.447-1-1-1h-.193c-1.188 0-2.382.422-3.456 1.22-.891.663-1.993.916-3.104.711-1.567-.287-2.836-1.518-3.155-3.062-.256-1.234.029-2.438.805-3.391.763-.94 1.894-1.478 3.103-1.478.862 0 1.684.276 2.375.798 1.041.786 2.226 1.202 3.428 1.202h.197c.553 0 1-.447 1-1v-12.992c0-.266-.105-.52-.293-.707s-.442-.293-.707-.293c-20.786.006-38.27 16.888-38.976 37.633-.337 9.912 3.051 19.479 9.544 26.939 5.437 6.249 8.432 13.993 8.432 21.803v.617c0 .553.447 1 1 1h36c.553 0 1-.447 1-1v-9h17c2.757 0 5-2.243 5-5v-15h5.87c1.518 0 2.896-.772 3.597-2.017.787-1.397.703-3.065-.218-4.354z"/><path d="m45.164 52.131-2.522-.624c-.188-.825-.45-1.632-.785-2.412l1.667-1.981c.274-.325.312-.788.096-1.153-.548-.923-1.182-1.794-1.886-2.591-.281-.319-.733-.422-1.125-.265l-2.396.973c-.643-.564-1.33-1.065-2.053-1.498l.187-2.584c.031-.424-.21-.821-.6-.99-.962-.416-1.984-.746-3.041-.981-.418-.089-.843.088-1.067.448l-1.369 2.203c-.904-.091-1.63-.093-2.538 0l-1.371-2.203c-.224-.361-.648-.537-1.066-.448-1.06.236-2.083.566-3.04.982-.39.169-.631.565-.6.989l.186 2.584c-.723.433-1.409.934-2.053 1.498l-2.396-.973c-.391-.157-.845-.055-1.125.265-.704.797-1.338 1.668-1.886 2.591-.217.365-.179.828.096 1.153l1.667 1.981c-.335.78-.598 1.587-.785 2.412l-2.522.624c-.412.103-.716.454-.755.877-.055.573-.082 1.097-.082 1.6 0 .502.026 1.025.081 1.599.039.423.343.774.755.877l2.522.624c.188.825.45 1.632.785 2.412l-1.667 1.981c-.274.325-.312.788-.096 1.153.548.923 1.182 1.794 1.886 2.591.28.319.734.421 1.125.265l2.396-.973c.643.564 1.33 1.065 2.053 1.498l-.187 2.584c-.031.424.21.82.6.989.956.415 1.979.745 3.041.982.419.09.843-.087 1.067-.448l1.369-2.203c.912.094 1.628.094 2.538 0l1.371 2.203c.185.298.508.472.849.472.072 0 .145-.008.218-.023 1.06-.236 2.083-.566 3.04-.982.39-.169.631-.565.6-.989l-.186-2.584c.723-.433 1.409-.934 2.053-1.498l2.396.973c.392.156.844.055 1.125-.265.704-.795 1.338-1.667 1.886-2.591.217-.365.179-.828-.096-1.153l-1.667-1.981c.335-.78.599-1.587.785-2.412l2.522-.624c.412-.103.716-.454.755-.877.055-.575.081-1.098.081-1.6 0-.503-.026-1.026-.081-1.6-.039-.423-.343-.774-.755-.877zm-1.183 3.185-2.434.603c-.384.095-.676.407-.744.796-.191 1.081-.534 2.133-1.019 3.127-.173.354-.12.779.135 1.081l1.606 1.91c-.262.397-.541.782-.837 1.151l-2.31-.938c-.364-.147-.784-.068-1.069.206-.808.776-1.703 1.43-2.664 1.943-.348.187-.554.56-.525.954l.179 2.488c-.436.164-.885.309-1.345.433l-1.324-2.127c-.184-.296-.506-.472-.849-.472-.045 0-.091.003-.136.009-1.268.177-2.024.177-3.292 0-.398-.051-.777.128-.985.463l-1.322 2.127c-.46-.124-.91-.269-1.346-.433l.18-2.488c.028-.395-.178-.768-.525-.954-.961-.514-1.856-1.167-2.664-1.943-.286-.274-.707-.354-1.069-.206l-2.309.938c-.296-.369-.576-.754-.838-1.151l1.606-1.909c.255-.302.308-.727.135-1.081-.484-.993-.826-2.045-1.019-3.127-.068-.389-.36-.701-.744-.796l-2.434-.603c-.012-.246-.019-.481-.019-.709s.007-.464.02-.709l2.434-.603c.384-.095.676-.407.744-.796.192-1.082.534-2.134 1.019-3.127.173-.354.12-.779-.135-1.081l-1.606-1.909c.262-.397.542-.782.838-1.151l2.309.938c.362.146.783.067 1.069-.206.808-.776 1.703-1.43 2.664-1.943.348-.187.554-.56.525-.954l-.179-2.488c.436-.164.885-.309 1.345-.433l1.324 2.127c.208.335.597.516.984.463 1.259-.173 2.036-.173 3.292 0 .396.049.776-.129.985-.463l1.322-2.127c.459.124.908.269 1.346.433l-.18 2.488c-.028.395.178.768.525.954.961.514 1.856 1.167 2.664 1.943.285.273.705.352 1.069.206l2.309-.938c.296.369.576.754.838 1.151l-1.606 1.909c-.255.302-.308.727-.135 1.081.484.993.826 2.045 1.019 3.127.068.389.36.701.744.796l2.434.603c.013.245.02.48.02.709s-.008.463-.02.708z"/><path d="m29 45.608c-4.963 0-9 4.037-9 9 0 2.745 1.229 5.306 3.374 7.025.433.346 1.062.275 1.406-.154.346-.432.276-1.061-.154-1.406-1.669-1.338-2.626-3.331-2.626-5.465 0-1.343.387-2.594 1.045-3.66l4.955 4.129v7.531c0 .553.447 1 1 1 4.963 0 9-4.037 9-9s-4.037-9-9-9zm4.673 3.803-4.673 3.895-4.673-3.895c1.241-1.117 2.876-1.803 4.673-1.803s3.432.686 4.673 1.803zm-3.673 12.125v-6.46l4.955-4.129c.658 1.067 1.045 2.318 1.045 3.661 0 3.52-2.612 6.442-6 6.928z"/><path d="m15 38c0 .553.447 1 1 1s1-.447 1-1v-8c0-.553-.447-1-1-1s-1 .447-1 1z"/><path d="m20 36c0 .553.447 1 1 1s1-.447 1-1v-8c0-.553-.447-1-1-1s-1 .447-1 1z"/><path d="m25 34c0 .553.447 1 1 1s1-.447 1-1v-8c0-.553-.447-1-1-1s-1 .447-1 1z"/><path d="m48 61c0 .553.447 1 1 1h8c.553 0 1-.447 1-1s-.447-1-1-1h-8c-.553 0-1 .448-1 1z"/><path d="m45 66c0 .553.447 1 1 1h8c.553 0 1-.447 1-1s-.447-1-1-1h-8c-.553 0-1 .448-1 1z"/><path d="m52 71c0-.553-.447-1-1-1h-8c-.553 0-1 .447-1 1s.447 1 1 1h8c.553 0 1-.447 1-1z"/><circle cx="26" cy="22" r="1"/><circle cx="21" cy="24" r="1"/><circle cx="16" cy="26" r="1"/><circle cx="61" cy="61" r="1"/><circle cx="58" cy="66" r="1"/><circle cx="55" cy="71" r="1"/><path d="m68 10c-4.411 0-8 3.589-8 8 0 2.851 1.551 5.5 4 6.92v2.08c0 .553.447 1 1 1h6c.553 0 1-.447 1-1v-2.08c2.449-1.42 4-4.069 4-6.92 0-4.411-3.589-8-8-8zm2.57 13.414c-.348.166-.57.518-.57.904v1.682h-4v-1.683c0-.386-.222-.737-.57-.903-2.084-.99-3.43-3.116-3.43-5.414 0-3.309 2.691-6 6-6s6 2.691 6 6c0 2.298-1.346 4.424-3.43 5.414z"/><path d="m71 30h-6c-.553 0-1 .447-1 1s.447 1 1 1h6c.553 0 1-.447 1-1s-.447-1-1-1z"/><path d="m69.293 15.293-1.293 1.293-1.293-1.293c-.391-.391-1.023-.391-1.414 0s-.391 1.023 0 1.414l1.707 1.707v3.586c0 .553.447 1 1 1s1-.447 1-1v-3.586l1.707-1.707c.391-.391.391-1.023 0-1.414s-1.023-.39-1.414 0z"/><circle cx="48" cy="39" r="1"/></svg>