<svg id="Layer_1" enable-background="new 0 0 128 128" height="512" viewBox="0 0 128 128" width="512" xmlns="http://www.w3.org/2000/svg"><path d="m117.095 37.25v-10.089c0-7.168-5.832-13-13-13h-28.96c-.553 0-1 .447-1 1v16.712c-1.421-1.02-3.213-1.662-4.871-1.662-3.454 0-6.264 2.811-6.264 6.265s2.81 6.265 6.264 6.265c1.658 0 3.45-.642 4.871-1.662v15.043c0 .553.451 1 1.004 1h18.334c.442 0 .832-.29.958-.714.127-.424-.04-.881-.41-1.123-1.497-.979-2.67-3.21-2.67-5.078 0-2.351 1.913-4.264 4.265-4.264 2.351 0 4.264 1.913 4.264 4.264 0 1.868-1.173 4.099-2.67 5.078-.37.242-.537.699-.41 1.123.126.424.516.714.958.714h18.338c.553 0 1-.447 1-1v-5.246c0-.553-.447-1-1-1v-1.75c.553 0 1-.447 1-1v-6.126c0-.553-.447-1-1-1v-1.75c.552 0 .999-.447.999-1z" fill="#e6e7e8"/><path d="m96.825 73.869h-16.713c1.021-1.421 1.662-3.213 1.662-4.871 0-3.454-2.81-6.265-6.264-6.265s-6.265 2.811-6.265 6.265c0 1.658.642 3.45 1.662 4.871h-14.042v-16.84c0-.421-.264-.798-.66-.94-.395-.141-.839-.022-1.109.302-1.094 1.316-3.104 2.272-4.779 2.272-2.352 0-4.265-1.913-4.265-4.265s1.913-4.265 4.265-4.265c1.675 0 3.685.956 4.779 2.272.27.325.714.445 1.109.302.396-.144.66-.52.66-.94v-17.843c0-.553-.448-1-1-1h-28.96c-7.168 0-13 5.832-13 13v57.905c0 7.168 5.832 13 13 13h57.92c7.168 0 13-5.832 13-13v-28.96c0-.553-.447-1-1-1z" fill="#e6e7e8"/><path d="m71.135 30.271c-1.22-1.805-3.751-3.06-5.871-3.06-2.908 0-5.265 2.357-5.265 5.264 0 2.908 2.357 5.265 5.265 5.265 2.119 0 4.65-1.255 5.871-3.06v17.441h.004 18.334c-1.839-1.203-3.122-3.771-3.122-5.915 0-2.907 2.357-5.264 5.264-5.264s5.264 2.357 5.264 5.264c0 2.144-1.284 4.712-3.123 5.915h18.338v-28.96c0-6.6-5.4-12-12-12h-28.955-.004z" fill="#fa759e"/><path d="m100.095 11.161h-28.956-.004v3h.004 28.956c6.6 0 12 5.4 12 12v-3c0-6.6-5.4-12-12-12z" fill="#fff"/><path d="m73.715 70.869c1.805-1.22 3.06-3.751 3.06-5.871 0-2.908-2.357-5.265-5.264-5.265-2.908 0-5.265 2.357-5.265 5.265 0 2.119 1.255 4.65 3.06 5.871h-17.441v.004 18.334c1.203-1.839 3.771-3.122 5.915-3.122 2.907 0 5.264 2.357 5.264 5.264s-2.357 5.264-5.264 5.264c-2.144 0-4.712-1.284-5.915-3.123v18.338h28.96c6.6 0 12-5.4 12-12v-28.955-.004z" fill="#0089ef"/><path d="m57.78 86.085c-2.144 0-4.712 1.283-5.915 3.122v-18.334h-17.98c1.642 1.284 2.76 3.651 2.764 5.649.006 2.907-2.346 5.269-5.254 5.275-2.907.006-5.269-2.346-5.275-5.254-.004-2.003 1.11-4.382 2.755-5.67h-17.97v28.956c0 6.6 5.4 12 12 12h28.96v-18.338c1.203 1.839 3.771 3.123 5.915 3.123 2.907 0 5.264-2.357 5.264-5.264s-2.357-5.265-5.264-5.265z" fill="#ffd7e5"/><path d="m46.316 45.134c1.948 0 4.242 1.061 5.548 2.634v-17.844h-28.96c-6.6 0-12 5.4-12 12v28.945.004h17.97c-1.644 1.289-2.759 3.667-2.755 5.67.006 2.908 2.368 5.26 5.275 5.254 2.908-.006 5.26-2.368 5.254-5.275-.004-1.998-1.122-4.365-2.764-5.649h17.979v-.004-17.839c-1.307 1.573-3.601 2.633-5.548 2.633-2.908 0-5.265-2.357-5.265-5.264.002-2.908 2.359-5.265 5.266-5.265z" fill="#6dc9f7"/><g fill="#3a2c60"><path d="m112.095 36c-.553 0-1 .447-1 1v6.125c0 .553.447 1 1 1s1-.447 1-1v-6.125c0-.553-.448-1-1-1z"/><path d="m100.095 10.161h-28.96c-.553 0-1 .447-1 1v16.712c-1.421-1.02-3.213-1.662-4.871-1.662-3.454 0-6.264 2.811-6.264 6.265s2.81 6.265 6.264 6.265c1.658 0 3.45-.642 4.871-1.662v15.043c0 .553.451 1 1.004 1h18.334c.442 0 .832-.29.958-.714.127-.424-.04-.881-.41-1.123-1.497-.979-2.67-3.21-2.67-5.078 0-2.351 1.913-4.264 4.265-4.264 2.351 0 4.264 1.913 4.264 4.264 0 1.868-1.173 4.099-2.67 5.078-.37.242-.537.699-.41 1.123.126.424.516.714.958.714h18.338c.553 0 1-.447 1-1v-5.246c0-.553-.447-1-1-1s-1 .447-1 1v4.246h-14.906c1.036-1.425 1.688-3.231 1.688-4.915 0-3.454-2.81-6.264-6.264-6.264s-6.265 2.81-6.265 6.264c0 1.684.652 3.49 1.688 4.915h-14.902v-16.44c0-.439-.287-.827-.707-.956-.419-.125-.875.031-1.121.396-.994 1.47-3.209 2.62-5.043 2.62-2.351 0-4.264-1.913-4.264-4.265s1.913-4.265 4.264-4.265c1.834 0 4.049 1.151 5.043 2.621.246.363.701.521 1.121.396.42-.129.707-.517.707-.956v-18.11h27.96c6.065 0 11 4.935 11 11v10.087c0 .553.447 1 1 1s1-.447 1-1v-10.089c0-7.168-5.832-13-13-13z"/><path d="m92.825 69.869h-16.713c1.021-1.421 1.662-3.213 1.662-4.871 0-3.454-2.81-6.265-6.264-6.265s-6.265 2.811-6.265 6.265c0 1.658.642 3.45 1.662 4.871h-14.042v-16.84c0-.421-.264-.798-.66-.94-.395-.141-.839-.022-1.109.302-1.094 1.316-3.104 2.272-4.779 2.272-2.352 0-4.265-1.913-4.265-4.265s1.913-4.265 4.265-4.265c1.675 0 3.685.956 4.779 2.272.27.325.714.445 1.109.302.396-.144.66-.52.66-.94v-17.843c0-.553-.448-1-1-1h-28.96c-7.168 0-13 5.832-13 13v57.905c0 7.168 5.832 13 13 13h57.92c7.168 0 13-5.832 13-13v-28.96c0-.553-.447-1-1-1zm-80.92-27.945c0-6.065 4.935-11 11-11h27.96v14.646c-1.367-.896-3.014-1.437-4.548-1.437-3.454 0-6.265 2.811-6.265 6.265s2.811 6.265 6.265 6.265c1.535 0 3.182-.54 4.548-1.436v14.646h-16.98c-.427 0-.807.271-.945.674-.139.404-.007.851.329 1.114 1.375 1.075 2.376 3.121 2.38 4.863.005 2.351-1.905 4.268-4.256 4.273-.003 0-.006 0-.009 0-2.347 0-4.26-1.907-4.265-4.256-.003-1.749.994-3.802 2.372-4.882.336-.264.468-.71.329-1.113s-.519-.674-.945-.674h-16.97zm39.674 50.609c-.424.126-.714.516-.714.958v17.338h-27.96c-6.065 0-11-4.935-11-11v-27.956h14.723c-.935 1.394-1.51 3.102-1.507 4.673.007 3.45 2.816 6.252 6.265 6.252h.013c3.454-.008 6.258-2.824 6.251-6.277-.003-1.563-.581-3.261-1.513-4.647h14.729v17.334c0 .442.291.832.714.958.426.128.88-.04 1.123-.41.979-1.497 3.21-2.67 5.078-2.67 2.351 0 4.264 1.913 4.264 4.265 0 2.351-1.913 4.264-4.264 4.264-1.868 0-4.099-1.173-5.078-2.67-.244-.372-.702-.54-1.124-.412zm40.246 7.296c0 6.065-4.935 11-11 11h-27.96v-14.904c1.424 1.036 3.231 1.688 4.915 1.688 3.454 0 6.264-2.81 6.264-6.264s-2.81-6.265-6.264-6.265c-1.684 0-3.491.652-4.915 1.688v-14.903h16.441c.439 0 .827-.287.956-.707s-.032-.875-.396-1.121c-1.47-.994-2.62-3.209-2.62-5.043 0-2.352 1.913-4.265 4.265-4.265 2.351 0 4.264 1.913 4.264 4.265 0 1.834-1.15 4.049-2.62 5.043-.363.246-.524.701-.396 1.121s.517.707.956.707h18.11z"/></g></svg>